# xmcd
#
# Track frame offsets:
#	150
#	14862
#	26888
#	39641
#	54805
#	67930
#	78354
#	88496
#	99696
#	113937
#	124019
#	139793
#
# Disc length: 2097 seconds
#
# Revision: 0
# Processed by: cddbd v1.5.1PL0 Copyright (c) Steve Scherf et al.
# Submitted via: audiograbber 1.83.01
#
DISCID=a6082f0c
DTITLE=The Rokes - Gli anni d'oro
DYEAR=1997
DGENRE=Italiano
TTITLE0=Bisogna saper perdere
TTITLE1=Cercate di abbracciare tutto il mondo
TTITLE2=Una anima pura
TTITLE3=Eccola di nuovo
TTITLE4=É la pioggia che va
TTITLE5=Quando eri come me
TTITLE6=Che colpa abbiamo noi
TTITLE7=Non c'è pace per me
TTITLE8=Ascolta nel vento
TTITLE9=C'é una strana espressione nel tuoi occhi
TTITLE10=Io vivró senza te
TTITLE11=Finchè c'è musica mi tengo su
EXTD=
EXTT0=
EXTT1=
EXTT2=
EXTT3=
EXTT4=
EXTT5=
EXTT6=
EXTT7=
EXTT8=
EXTT9=
EXTT10=
EXTT11=
PLAYORDER=
